<svg viewBox="0 0 127.59 21.83"><path d="M14.27,8.22h4.38c-.56-4-4.11-6.86-8.71-6.86C4.56,1.36.41,5.24.41,11.84c0,6.44,3.88,10.44,9.62,10.44,5.14,0,8.81-3.25,8.81-8.61V11.1H10.32v3.24h4.37c-.06,2.53-1.78,4.13-4.64,4.13-3.23,0-5.27-2.42-5.27-6.67S6.89,5.17,10,5.17A4.09,4.09,0,0,1,14.27,8.22ZM28.05,22.3c4.64,0,7.52-3.17,7.52-7.88s-2.88-7.89-7.52-7.89-7.52,3.16-7.52,7.89S23.42,22.3,28.05,22.3Zm0-3.28c-2.14,0-3.23-2-3.23-4.63s1.09-4.63,3.23-4.63,3.19,2,3.19,4.63S30.17,19,28.07,19ZM44.38,22.3c4.64,0,7.52-3.17,7.52-7.88S49,6.53,44.38,6.53s-7.51,3.16-7.51,7.89S39.75,22.3,44.38,22.3Zm0-3.28c-2.13,0-3.23-2-3.23-4.63s1.1-4.63,3.23-4.63,3.2,2,3.2,4.63S46.5,19,44.4,19Zm15,3.23a4.51,4.51,0,0,0,4.34-2.7H64V22h4.17V1.64H63.91V9.29h-.13a4.51,4.51,0,0,0-4.35-2.76c-3.35,0-6.18,2.6-6.18,7.85S56,22.25,59.44,22.25Zm1.34-3.37c-2.07,0-3.21-1.85-3.21-4.52S58.69,9.9,60.78,9.9,64,11.64,64,14.36,62.82,18.88,60.78,18.88ZM84.36,8.22h4.37c-.55-4-4.1-6.86-8.71-6.86-5.38,0-9.52,3.88-9.52,10.48,0,6.44,3.88,10.44,9.61,10.44,5.14,0,8.81-3.25,8.81-8.61V11.1H80.4v3.24h4.38c-.06,2.53-1.78,4.13-4.65,4.13-3.23,0-5.27-2.42-5.27-6.67S77,5.17,80.09,5.17A4.11,4.11,0,0,1,84.36,8.22ZM92.19,22h4.24V6.73H92.19ZM94.32,4.76a2.24,2.24,0,0,0,2.3-2.15,2.3,2.3,0,0,0-4.59,0A2.24,2.24,0,0,0,94.32,4.76Zm18.9,2h-4.48l-3.17,10.92h-.15L102.24,6.73H97.77L103.11,22h4.77ZM121,22.3c3.78,0,6.32-1.84,6.92-4.68L124,17.37a2.87,2.87,0,0,1-2.93,1.77c-2.12,0-3.46-1.41-3.46-3.68H128V14.28c0-5.19-3.14-7.75-7.18-7.75-4.49,0-7.41,3.19-7.41,7.9S116.29,22.3,121,22.3Zm-3.39-9.48a3.22,3.22,0,0,1,3.29-3.13A3,3,0,0,1,124,12.82Z" transform="translate(-0.41 -0.47)" /></svg>
