<svg viewBox="0 0 16 14"><title>twitter</title><path d="M5,14c6,0,9.34-5.39,9.34-10.06,0-.15,0-.3,0-.46A7,7,0,0,0,16,1.66a6.25,6.25,0,0,1-1.88.55A3.53,3.53,0,0,0,15.56.26a6.23,6.23,0,0,1-2.09.85A3.12,3.12,0,0,0,8.83,1a3.71,3.71,0,0,0-1,3.38A9.14,9.14,0,0,1,1.11.65a3.7,3.7,0,0,0,1,4.71A3,3,0,0,1,.64,4.92V5A3.47,3.47,0,0,0,3.27,8.43a3.09,3.09,0,0,1-1.48.06A3.33,3.33,0,0,0,4.86,11,6.32,6.32,0,0,1,.78,12.46,5.11,5.11,0,0,1,0,12.41,8.82,8.82,0,0,0,5,14" transform="translate(0 0)"  fill-rule="evenodd"/></svg>
